<svg width="16" height="16" viewBox="0 0 16 16" fill="none" xmlns="http://www.w3.org/2000/svg">
<path d="M8.25 15C6.32718 15 4.48311 14.2361 3.12348 12.8765C1.76384 11.5168 1 9.67278 1 7.74996C1 4.81246 2.6875 2.17871 5.30031 1.04152C5.3924 1.00139 5.49443 0.989919 5.59313 1.00861C5.69183 1.02731 5.7826 1.0753 5.85363 1.14632C5.92466 1.21735 5.97265 1.30813 5.99134 1.40683C6.01004 1.50552 5.99857 1.60756 5.95844 1.69964C5.65844 2.38839 5.5 3.27058 5.5 4.24996C5.5 7.69621 8.30375 10.5 11.75 10.5C12.7294 10.5 13.6116 10.3415 14.3003 10.0415C14.3924 10.0014 14.4944 9.98992 14.5931 10.0086C14.6918 10.0273 14.7826 10.0753 14.8536 10.1463C14.9247 10.2174 14.9726 10.3081 14.9913 10.4068C15.01 10.5055 14.9986 10.6076 14.9584 10.6996C13.8213 13.3125 11.1875 15 8.25 15Z" fill="#F4FAFA"/>
</svg>
