<svg width="16" height="16" viewBox="0 0 16 16" fill="none" xmlns="http://www.w3.org/2000/svg">
<path d="M8 3.6875C7.81766 3.6875 7.6428 3.61507 7.51386 3.48614C7.38493 3.3572 7.3125 3.18234 7.3125 3V1.5C7.3125 1.31766 7.38493 1.1428 7.51386 1.01386C7.6428 0.884933 7.81766 0.8125 8 0.8125C8.18234 0.8125 8.3572 0.884933 8.48614 1.01386C8.61507 1.1428 8.6875 1.31766 8.6875 1.5V3C8.6875 3.18234 8.61507 3.3572 8.48614 3.48614C8.3572 3.61507 8.18234 3.6875 8 3.6875Z" fill="#F4FAFA"/>
<path d="M8 15.1875C7.81766 15.1875 7.6428 15.1151 7.51386 14.9861C7.38493 14.8572 7.3125 14.6823 7.3125 14.5V13C7.3125 12.8177 7.38493 12.6428 7.51386 12.5139C7.6428 12.3849 7.81766 12.3125 8 12.3125C8.18234 12.3125 8.3572 12.3849 8.48614 12.5139C8.61507 12.6428 8.6875 12.8177 8.6875 13V14.5C8.6875 14.6823 8.61507 14.8572 8.48614 14.9861C8.3572 15.1151 8.18234 15.1875 8 15.1875Z" fill="#F4FAFA"/>
<path d="M11.5356 5.15188C11.3997 5.15186 11.2668 5.11154 11.1538 5.03601C11.0407 4.96049 10.9526 4.85315 10.9006 4.72756C10.8485 4.60197 10.8349 4.46378 10.8614 4.33044C10.8879 4.1971 10.9533 4.0746 11.0494 3.97844L12.11 2.91781C12.2395 2.79168 12.4135 2.72163 12.5942 2.72282C12.775 2.72401 12.948 2.79635 13.0758 2.92417C13.2036 3.052 13.276 3.22502 13.2772 3.40578C13.2784 3.58655 13.2083 3.76051 13.0822 3.89L12.0216 4.95063C11.9578 5.01452 11.8821 5.06519 11.7987 5.09972C11.7153 5.13426 11.6259 5.15198 11.5356 5.15188V5.15188Z" fill="#F4FAFA"/>
<path d="M3.40372 13.2837C3.26774 13.2837 3.13482 13.2434 3.02177 13.1678C2.90872 13.0922 2.82061 12.9849 2.76859 12.8592C2.71658 12.7336 2.70299 12.5953 2.72955 12.462C2.7561 12.3286 2.82161 12.2061 2.91779 12.11L3.97841 11.0494C4.04194 10.9841 4.11779 10.9322 4.20155 10.8965C4.28532 10.8608 4.37534 10.8422 4.46638 10.8416C4.55742 10.841 4.64768 10.8585 4.73191 10.893C4.81614 10.9276 4.89267 10.9785 4.95704 11.0429C5.02142 11.1073 5.07237 11.1838 5.10694 11.2681C5.1415 11.3523 5.15899 11.4425 5.15839 11.5336C5.15779 11.6246 5.13912 11.7146 5.10345 11.7984C5.06778 11.8822 5.01582 11.958 4.9506 12.0215L3.88997 13.0822C3.8262 13.1461 3.75041 13.1969 3.66696 13.2315C3.58352 13.2661 3.49406 13.2838 3.40372 13.2837V13.2837Z" fill="#F4FAFA"/>
<path d="M14.5 8.6875H13C12.8177 8.6875 12.6428 8.61507 12.5139 8.48614C12.3849 8.3572 12.3125 8.18234 12.3125 8C12.3125 7.81766 12.3849 7.6428 12.5139 7.51386C12.6428 7.38493 12.8177 7.3125 13 7.3125H14.5C14.6823 7.3125 14.8572 7.38493 14.9861 7.51386C15.1151 7.6428 15.1875 7.81766 15.1875 8C15.1875 8.18234 15.1151 8.3572 14.9861 8.48614C14.8572 8.61507 14.6823 8.6875 14.5 8.6875Z" fill="#F4FAFA"/>
<path d="M3 8.6875H1.5C1.31766 8.6875 1.1428 8.61507 1.01386 8.48614C0.884933 8.3572 0.8125 8.18234 0.8125 8C0.8125 7.81766 0.884933 7.6428 1.01386 7.51386C1.1428 7.38493 1.31766 7.3125 1.5 7.3125H3C3.18234 7.3125 3.3572 7.38493 3.48614 7.51386C3.61507 7.6428 3.6875 7.81766 3.6875 8C3.6875 8.18234 3.61507 8.3572 3.48614 8.48614C3.3572 8.61507 3.18234 8.6875 3 8.6875Z" fill="#F4FAFA"/>
<path d="M12.5962 13.2837C12.5059 13.2838 12.4165 13.2661 12.333 13.2315C12.2496 13.1969 12.1738 13.1462 12.11 13.0822L11.0494 12.0216C10.9232 11.8921 10.8532 11.7181 10.8544 11.5373C10.8556 11.3566 10.9279 11.1836 11.0557 11.0557C11.1836 10.9279 11.3566 10.8556 11.5373 10.8544C11.7181 10.8532 11.8921 10.9232 12.0216 11.0494L13.0822 12.11C13.1784 12.2061 13.2439 12.3286 13.2704 12.462C13.297 12.5953 13.2834 12.7336 13.2314 12.8592C13.1794 12.9849 13.0913 13.0923 12.9782 13.1678C12.8652 13.2434 12.7322 13.2837 12.5962 13.2837V13.2837Z" fill="#F4FAFA"/>
<path d="M4.46434 5.15188C4.37407 5.15205 4.28466 5.13436 4.20126 5.09982C4.11786 5.06528 4.04212 5.01457 3.97841 4.95063L2.91778 3.89C2.79165 3.76051 2.7216 3.58655 2.72279 3.40578C2.72398 3.22502 2.79632 3.052 2.92414 2.92417C3.05196 2.79635 3.22499 2.72401 3.40575 2.72282C3.58651 2.72163 3.76048 2.79168 3.88997 2.91781L4.95059 3.97844C5.04668 4.0746 5.1121 4.1971 5.13859 4.33044C5.16507 4.46378 5.15143 4.60197 5.09939 4.72756C5.04735 4.85315 4.95924 4.96049 4.84621 5.03601C4.73318 5.11154 4.60029 5.15186 4.46434 5.15188V5.15188Z" fill="#F4FAFA"/>
<path d="M8 11.1875C7.36957 11.1875 6.7533 11.0006 6.22912 10.6503C5.70494 10.3001 5.29639 9.80224 5.05514 9.21981C4.81388 8.63737 4.75076 7.99647 4.87375 7.37815C4.99674 6.75984 5.30032 6.19188 5.7461 5.7461C6.19188 5.30032 6.75984 4.99674 7.37815 4.87375C7.99647 4.75076 8.63737 4.81388 9.21981 5.05514C9.80224 5.29639 10.3001 5.70494 10.6503 6.22912C11.0006 6.7533 11.1875 7.36957 11.1875 8C11.1865 8.84507 10.8504 9.65525 10.2528 10.2528C9.65525 10.8504 8.84507 11.1865 8 11.1875V11.1875Z" fill="#F4FAFA"/>
</svg>
